<svg height="480pt" viewBox="-1 0 480 480.0005" width="480pt" xmlns="http://www.w3.org/2000/svg"><path d="m336 181.652344 11.3125-11.308594-37.65625-37.65625v-92.6875c0-4.421875-3.582031-8-8-8h-48c-4.417969 0-8 3.578125-8 8v28.6875l-66.34375-66.34375c-3.125-3.125-8.1875-3.125-11.3125 0l-168 168 11.3125 11.308594 162.34375-162.34375zm-74.34375-133.652344h32v68.6875l-32-32zm0 0"/><path d="m342.191406 347.855469c-1.699218 8.941406.691406 18.175781 6.515625 25.171875 5.820313 6.996094 14.46875 11.019531 23.574219 10.972656 8.125.023438 15.925781-3.207031 21.65625-8.96875l34.75-34.753906c8.761719-8.757813 11.382812-21.929688 6.640625-33.375-4.742187-11.445313-15.910156-18.90625-28.296875-18.902344-1.851562.011719-3.699219.191406-5.519531.535156l-68.390625-68.394531c2.617187-13.714844-4.496094-27.441406-17.21875-33.207031l-136.589844-136.589844c-3.125-3.125-8.1875-3.125-11.3125 0l-144 144c-1.5 1.5-2.34375 3.53125-2.34375 5.65625v144c0 4.417969 3.582031 8 8 8h204.6875l-75.71875 75.71875c-11.960938 11.960938-11.960938 31.351562 0 43.3125s31.351562 11.960938 43.3125 0l131.71875-131.722656zm79.464844-29.234375c-.007812 3.878906-1.546875 7.59375-4.28125 10.34375l-34.75 34.753906c-5.746094 5.503906-14.839844 5.40625-20.46875-.21875-5.628906-5.628906-5.726562-14.722656-.21875-20.46875l34.75-34.753906c4.1875-4.175782 10.472656-5.421875 15.9375-3.160156 5.460938 2.261718 9.027344 7.59375 9.03125 13.503906zm-96-83.3125 60.6875 60.691406-.96875.964844-34.75 34.753906-.96875.96875-60.6875-60.6875.96875-.96875 34.75-34.753906zm-57.375 28.691406c-5.914062-.007812-11.242188-3.570312-13.507812-9.035156-2.261719-5.460938-1.015626-11.75 3.164062-15.933594l34.75-34.753906c5.746094-5.503906 14.839844-5.40625 20.46875.222656 5.628906 5.625 5.726562 14.71875.21875 20.464844l-34.75 34.753906c-2.75 2.734375-6.46875 4.269531-10.34375 4.28125zm-230.625 72v-132.691406l136-136 118.6875 118.691406c-4.113281 1.503906-7.855469 3.878906-10.96875 6.964844l-34.75 34.753906c-8.761719 8.757812-11.382812 21.929688-6.640625 33.375s15.910156 18.90625 28.296875 18.90625c1.851562-.011719 3.699219-.191406 5.519531-.539062l16.542969 16.539062-40 40zm152.96875 123.71875c-5.746094 5.503906-14.839844 5.40625-20.46875-.21875-5.628906-5.628906-5.726562-14.722656-.21875-20.46875l131.71875-131.722656 20.6875 20.691406zm0 0"/><path d="m461.65625 433.46875v-9.46875c0-13.257812-10.746094-24-24-24h-72c-13.253906 0-24 10.742188-24 24v9.46875c-9.554688 3.378906-15.957031 12.394531-16 22.53125v16c0 4.417969 3.582031 8 8 8h136c4.417969 0 8-3.582031 8-8v-16c-.042969-10.136719-6.445312-19.152344-16-22.53125zm-104-9.46875c0-4.421875 3.582031-8 8-8h72c4.417969 0 8 3.578125 8 8v8h-88zm104 40h-120v-8c0-4.421875 3.582031-8 8-8h104c4.417969 0 8 3.578125 8 8zm0 0"/></svg>